# xmcd
# 
# Track frame offsets:
#     150
#     27901
#     62212
#     92853
#     131450
#     155239
#     183571
#     231736
#     260084
#     276101
#     305574
# 
# Disc length: 4438
# 
# Revision: 1
# Processed by: cddbd v1.5.2PL0 Copyright (c) Steve Scherf et al.
# Submitted via: BonkEnc v1.0.8
# 
DISCID=a911540b
DTITLE=Pat Metheny Group - Autumn Leaves [Gotanda Youport Hall, Tokyo, October 8, 1995]
DYEAR=1995
DGENRE=Contemporary Jazz
TTITLE0=Have You Heard
TTITLE1=And Then I Knew
TTITLE2=Here To Stay
TTITLE3=First Circle
TTITLE4=Scrap Metal
TTITLE5=Farer's Trust
TTITLE6=Episode D'Azur
TTITLE7=Third Wind
TTITLE8=This Is Not America
TTITLE9=Minuano (Six-Eight)
TTITLE10=Stranger In Town
EXTD=YEAR: 1995
EXTT0=
EXTT1=
EXTT2=
EXTT3=
EXTT4=
EXTT5=
EXTT6=
EXTT7=
EXTT8=
EXTT9=
EXTT10=
PLAYORDER=
